<svg width="28" height="28" viewBox="0 0 28 28" fill="none" xmlns="http://www.w3.org/2000/svg">
<path d="M14.0001 24.6667C15.6667 24.6667 17.0834 24.0833 18.2501 22.9167C19.4167 21.75 20.0001 20.3333 20.0001 18.6667C20.0001 17 19.4167 15.5833 18.2501 14.4167C17.0834 13.25 15.6667 12.6667 14.0001 12.6667C12.3334 12.6667 10.9167 13.25 9.75008 14.4167C8.58341 15.5833 8.00008 17 8.00008 18.6667C8.00008 20.3333 8.58341 21.75 9.75008 22.9167C10.9167 24.0833 12.3334 24.6667 14.0001 24.6667ZM10.1001 10.9333C10.5445 10.6889 11.0167 10.4944 11.5167 10.35C12.0167 10.2055 12.5223 10.1111 13.0334 10.0667L9.66675 3.33332H6.33341L10.1001 10.9333ZM17.9001 10.9333L21.7001 3.33332H18.3334L15.5001 8.99999L16.1334 10.2667C16.4445 10.3555 16.7445 10.45 17.0334 10.55C17.3223 10.65 17.6112 10.7778 17.9001 10.9333ZM6.53341 23.0667C6.15564 22.4222 5.86119 21.7278 5.65008 20.9833C5.43897 20.2389 5.33341 19.4667 5.33341 18.6667C5.33341 17.8667 5.43897 17.0944 5.65008 16.35C5.86119 15.6055 6.15564 14.9111 6.53341 14.2667C5.60008 14.5778 4.83341 15.1278 4.23341 15.9167C3.63341 16.7055 3.33341 17.6222 3.33341 18.6667C3.33341 19.7111 3.63341 20.6278 4.23341 21.4167C4.83341 22.2055 5.60008 22.7555 6.53341 23.0667ZM21.4667 23.0667C22.4001 22.7555 23.1667 22.2055 23.7667 21.4167C24.3667 20.6278 24.6667 19.7111 24.6667 18.6667C24.6667 17.6222 24.3667 16.7055 23.7667 15.9167C23.1667 15.1278 22.4001 14.5778 21.4667 14.2667C21.8445 14.9111 22.139 15.6055 22.3501 16.35C22.5612 17.0944 22.6667 17.8667 22.6667 18.6667C22.6667 19.4667 22.5612 20.2389 22.3501 20.9833C22.139 21.7278 21.8445 22.4222 21.4667 23.0667ZM14.0001 27.3333C13.1112 27.3333 12.2612 27.2055 11.4501 26.95C10.639 26.6944 9.88897 26.3444 9.20008 25.9C9.00008 25.9444 8.80008 25.9722 8.60008 25.9833C8.40008 25.9944 8.18897 26 7.96675 26C5.94453 26 4.2223 25.2889 2.80008 23.8667C1.37786 22.4444 0.666748 20.7222 0.666748 18.7C0.666748 16.7667 1.31119 15.1111 2.60008 13.7333C3.88897 12.3555 5.47786 11.5889 7.36675 11.4333L2.00008 0.666656H11.3334L14.0001 5.99999L16.6667 0.666656H26.0001L20.6667 11.3667C22.5556 11.5444 24.139 12.3222 25.4167 13.7C26.6945 15.0778 27.3334 16.7333 27.3334 18.6667C27.3334 20.7111 26.6223 22.4444 25.2001 23.8667C23.7779 25.2889 22.0445 26 20.0001 26C19.8001 26 19.5945 25.9944 19.3834 25.9833C19.1723 25.9722 18.9667 25.9444 18.7667 25.9C18.0779 26.3444 17.3334 26.6944 16.5334 26.95C15.7334 27.2055 14.889 27.3333 14.0001 27.3333ZM11.5334 22.3333L12.4667 19.3L10.0001 17.5333H13.0334L14.0001 14.3333L14.9667 17.5333H18.0001L15.5334 19.3L16.4667 22.3333L14.0001 20.4667L11.5334 22.3333Z" fill="black"/>
</svg>
