<svg width="25" height="24" viewBox="0 0 25 24" fill="none" xmlns="http://www.w3.org/2000/svg">
<mask id="mask0_19_50" style="mask-type:alpha" maskUnits="userSpaceOnUse" x="0" y="0" width="25" height="24">
<rect x="0.0522461" width="24" height="24" fill="#D9D9D9"/>
</mask>
<g mask="url(#mask0_19_50)">
<path d="M7.05225 21V19H11.0522V15.9C10.2356 15.7167 9.50641 15.3708 8.86475 14.8625C8.22308 14.3542 7.75225 13.7167 7.45225 12.95C6.20225 12.8 5.15641 12.2542 4.31475 11.3125C3.47308 10.3708 3.05225 9.26667 3.05225 8V7C3.05225 6.45 3.24808 5.97917 3.63975 5.5875C4.03141 5.19583 4.50225 5 5.05225 5H7.05225V3H17.0522V5H19.0522C19.6022 5 20.0731 5.19583 20.4647 5.5875C20.8564 5.97917 21.0522 6.45 21.0522 7V8C21.0522 9.26667 20.6314 10.3708 19.7897 11.3125C18.9481 12.2542 17.9022 12.8 16.6522 12.95C16.3522 13.7167 15.8814 14.3542 15.2397 14.8625C14.5981 15.3708 13.8689 15.7167 13.0522 15.9V19H17.0522V21H7.05225ZM7.05225 10.8V7H5.05225V8C5.05225 8.63333 5.23558 9.20417 5.60225 9.7125C5.96891 10.2208 6.45225 10.5833 7.05225 10.8ZM17.0522 10.8C17.6522 10.5833 18.1356 10.2208 18.5022 9.7125C18.8689 9.20417 19.0522 8.63333 19.0522 8V7H17.0522V10.8Z" fill="#90A9BE"/>
</g>
<mask id="mask1_19_50" style="mask-type:alpha" maskUnits="userSpaceOnUse" x="0" y="0" width="25" height="24">
<rect x="0.0522461" width="24" height="24" fill="#D9D9D9"/>
</mask>
<g mask="url(#mask1_19_50)">
<path d="M7.05225 21V19H11.0522V15.9C10.2356 15.7167 9.50641 15.3708 8.86475 14.8625C8.22308 14.3542 7.75225 13.7167 7.45225 12.95C6.20225 12.8 5.15641 12.2542 4.31475 11.3125C3.47308 10.3708 3.05225 9.26667 3.05225 8V7C3.05225 6.45 3.24808 5.97917 3.63975 5.5875C4.03141 5.19583 4.50225 5 5.05225 5H7.05225V3H17.0522V5H19.0522C19.6022 5 20.0731 5.19583 20.4647 5.5875C20.8564 5.97917 21.0522 6.45 21.0522 7V8C21.0522 9.26667 20.6314 10.3708 19.7897 11.3125C18.9481 12.2542 17.9022 12.8 16.6522 12.95C16.3522 13.7167 15.8814 14.3542 15.2397 14.8625C14.5981 15.3708 13.8689 15.7167 13.0522 15.9V19H17.0522V21H7.05225ZM7.05225 10.8V7H5.05225V8C5.05225 8.63333 5.23558 9.20417 5.60225 9.7125C5.96891 10.2208 6.45225 10.5833 7.05225 10.8ZM12.0522 14C12.8856 14 13.5939 13.7083 14.1772 13.125C14.7606 12.5417 15.0522 11.8333 15.0522 11V5H9.05225V11C9.05225 11.8333 9.34391 12.5417 9.92725 13.125C10.5106 13.7083 11.2189 14 12.0522 14ZM17.0522 10.8C17.6522 10.5833 18.1356 10.2208 18.5022 9.7125C18.8689 9.20417 19.0522 8.63333 19.0522 8V7H17.0522V10.8Z" fill="#1C1B1F"/>
</g>
</svg>
